<svg id="圖層_1" data-name="圖層 1" xmlns="http://www.w3.org/2000/svg" viewBox="0 0 305 128"><path d="M48.56,67.93l4.06,19.31-8.74,1.84L31.8,31.65,47,28.46c10.5-2.21,15.3,1.05,17.22,10.14l2.52,12c1.86,8.88-1.22,13.79-11.72,16ZM42.27,38.05,46.88,60l6.34-1.34c4-.84,5.49-2.62,4.39-7.84L55.8,42.2c-1.11-5.29-3.17-6.33-7.19-5.48Z"/><path d="M62.87,24.74l8.73-1.83,1.15,5.42L64,30.17Zm1.48,7.05L73.09,30,83.76,80.69,75,82.52Z"/><path d="M111,52.14l1.71,8.11c2,9.44-1.62,15-12.19,17.27C89.68,79.81,84.34,75.41,82.1,64.77L78,45.18c-2.24-10.64.88-16.81,11.73-19.09,10.57-2.23,16.13,1.46,18.12,10.9l1.66,7.89-8.74,1.84-1.4-6.62c-1.17-5.57-3.51-6.55-7.95-5.61S85.53,37.71,87,44.61l3.58,17.06c1.46,6.9,3.76,8.4,8.13,7.48s6.18-2.77,5-8.34L102.28,54Z"/><path d="M105.07,16.23l8.74-1.84,6.46,30.73,6.36-26.43,8.88-1.87-6.73,27.1,17.55,23.6-9.3,2-16.25-22,5.11,24.31-8.73,1.84Z"/><polygon points="16.68 110.79 22.81 86.2 29.6 87.89 26.13 101.84 137.78 80.28 139.11 87.15 16.68 110.79"/><path d="M174.73,48.49,170,73.75l-8.77-1.66,10.9-57.66,24.77,4.68-1.65,8.7-16-3L176.34,40l15.42,2.92-1.61,8.49Z"/><path d="M198.47,19.42l8.78,1.66L196.34,78.74l-8.77-1.66Z"/><path d="M207.67,28.12l8.77,1.66-9.63,50.94L198,79.06ZM209,21.05l8.77,1.65-1,5.45L208,26.49Z"/><path d="M242.94,64.84,241.4,73c-1.8,9.48-7.28,13.28-17.89,11.28-10.9-2.06-14.14-8.17-12.12-18.86l3.72-19.67c2-10.68,7.27-15.18,18.17-13.12,10.61,2,14.33,7.54,12.53,17l-1.5,7.93-8.77-1.66,1.26-6.65c1.06-5.59-.73-7.39-5.18-8.24s-6.66.72-8,7.66l-3.24,17.12c-1.31,6.93.24,9.2,4.62,10s6.78-.18,7.84-5.77l1.29-6.86Z"/><path d="M251.25,29.4,260,31.06l-5.83,30.85,16-22,8.92,1.68L262.5,64.06l7.13,28.54-9.34-1.76-6.56-26.53-4.61,24.41-8.78-1.66Z"/><polygon points="288.16 116.39 158.69 89.3 160.12 82.44 278.84 107.29 275.58 93.3 282.39 91.71 288.16 116.39"/></svg>