<svg id="圖層_1" data-name="圖層 1" xmlns="http://www.w3.org/2000/svg" viewBox="0 0 229 211"><path d="M44.94,67.81l6,18.81-8.51,2.7L24.65,33.38,39.4,28.7c10.23-3.25,15.34-.49,18.15,8.37l3.7,11.67c2.74,8.64.16,13.84-10.06,17.09Zm-9.23-29.1,6.77,21.35,6.18-2c3.91-1.25,5.19-3.16,3.58-8.24l-2.66-8.38c-1.63-5.14-3.79-6-7.7-4.73Z"/><path d="M54.87,23.41l8.51-2.7L65.06,26l-8.51,2.7Zm2.18,6.87,8.51-2.7L81.24,77l-8.51,2.7Z"/><path d="M105.51,45.87l2.5,7.89c2.92,9.2-.1,15.15-10.4,18.41C87,75.53,81.29,71.69,78,61.32L72,42.24c-3.29-10.36-.8-16.82,9.76-20.17,10.3-3.27,16.2-.15,19.12,9.05l2.44,7.68-8.51,2.7-2.05-6.45c-1.72-5.42-4.15-6.16-8.47-4.79s-5.52,3.79-3.39,10.52l5.27,16.61c2.14,6.72,4.58,8,8.83,6.64s5.88-3.38,4.16-8.8L97,48.57Z"/><path d="M96,10.73,104.53,8,114,38,117.72,11l8.65-2.74-4,27.63,19.81,21.74-9.06,2.88L114.77,40.29,122.28,64l-8.51,2.7Z"/><path d="M96.73,133.49,92,158.75l-8.77-1.66,10.9-57.66,24.77,4.68-1.65,8.7-16-3L98.34,125l15.42,2.92-1.61,8.49Z"/><path d="M120.47,104.42l8.78,1.66-10.91,57.66-8.77-1.66Z"/><path d="M129.67,113.12l8.77,1.66-9.63,50.94L120,164.06Zm1.34-7.07,8.77,1.65-1,5.45L130,111.49Z"/><path d="M164.94,149.84,163.4,158c-1.8,9.48-7.28,13.28-17.89,11.28-10.9-2.06-14.14-8.17-12.12-18.86l3.72-19.67c2-10.68,7.27-15.18,18.17-13.12,10.61,2,14.33,7.54,12.53,17l-1.5,7.93-8.77-1.66,1.26-6.65c1.06-5.59-.73-7.39-5.18-8.24s-6.66.72-8,7.66l-3.24,17.12c-1.31,6.93.24,9.2,4.62,10s6.78-.18,7.84-5.77l1.29-6.86Z"/><path d="M173.25,114.4l8.77,1.66-5.83,30.85,16-22,8.92,1.68L184.5,149.06l7.13,28.54-9.34-1.76-6.56-26.53-4.61,24.41-8.78-1.66Z"/><polygon points="17.5 113.64 21.14 88.56 28.07 89.56 26 103.79 134.95 71.2 136.96 77.9 17.5 113.64"/><polygon points="210.16 201.39 80.69 174.3 82.12 167.44 200.84 192.29 197.58 178.3 204.39 176.71 210.16 201.39"/></svg>